<svg width="25" height="24" viewBox="0 0 25 24" fill="none" xmlns="http://www.w3.org/2000/svg">
<path d="M6.5 5.5V13H10.882C11.1827 13 11.333 13 11.4538 13.0747C11.5747 13.1493 11.6419 13.2838 11.7764 13.5528L12.2236 14.4472C12.3581 14.7162 12.4253 14.8507 12.5462 14.9253C12.667 15 12.8173 15 13.118 15H18C18.2357 15 18.3536 15 18.4268 14.9268C18.5 14.8536 18.5 14.7357 18.5 14.5V7.5C18.5 7.2643 18.5 7.14645 18.4268 7.07322C18.3536 7 18.2357 7 18 7H13.118C12.8173 7 12.667 7 12.5462 6.92533C12.4253 6.85065 12.3581 6.71617 12.2236 6.44721L11.7764 5.55279C11.6419 5.28383 11.5747 5.14935 11.4538 5.07467C11.333 5 11.1827 5 10.882 5H7C6.7643 5 6.64645 5 6.57322 5.07322C6.5 5.14645 6.5 5.2643 6.5 5.5Z" fill="white"/>
<path d="M6.5 13V5.5C6.5 5.2643 6.5 5.14645 6.57322 5.07322C6.64645 5 6.7643 5 7 5H10.882C11.1827 5 11.333 5 11.4538 5.07467C11.5747 5.14935 11.6419 5.28383 11.7764 5.55279L12.2236 6.44721C12.3581 6.71617 12.4253 6.85065 12.5462 6.92533C12.667 7 12.8173 7 13.118 7H18C18.2357 7 18.3536 7 18.4268 7.07322C18.5 7.14645 18.5 7.2643 18.5 7.5V14.5C18.5 14.7357 18.5 14.8536 18.4268 14.9268C18.3536 15 18.2357 15 18 15H13.118C12.8173 15 12.667 15 12.5462 14.9253C12.4253 14.8507 12.3581 14.7162 12.2236 14.4472L11.7764 13.5528C11.6419 13.2838 11.5747 13.1493 11.4538 13.0747C11.333 13 11.1827 13 10.882 13H6.5ZM6.5 13V19" stroke="white" stroke-width="2" stroke-linecap="round"/>
</svg>
