<svg width="25" height="24" viewBox="0 0 25 24" fill="none" xmlns="http://www.w3.org/2000/svg">
<path fill-rule="evenodd" clip-rule="evenodd" d="M4.21318 9.46472C3.875 10.2 3.875 11.0365 3.875 12.7094V17.9342C3.875 20.2575 3.875 21.4192 4.59677 22.141C5.31855 22.8628 6.48022 22.8628 8.80357 22.8628H10.018C10.0062 22.8013 10 22.7379 10 22.673V17.9978C10 17.3709 10.4477 16.8627 11 16.8627H14C14.5523 16.8627 15 17.3709 15 17.9978V22.673C15 22.7379 14.9938 22.8013 14.982 22.8628H16.1964C18.5198 22.8628 19.6815 22.8628 20.4032 22.141C21.125 21.4192 21.125 20.2575 21.125 17.9342V12.7094C21.125 11.0365 21.125 10.2 20.7868 9.46472C20.4486 8.72945 19.8135 8.18508 18.5434 7.09634L17.3112 6.04022C15.0153 4.07232 13.8674 3.08838 12.5 3.08838C11.1326 3.08838 9.98467 4.07232 7.68879 6.04022L6.45665 7.09634C5.18645 8.18508 4.55135 8.72945 4.21318 9.46472Z" fill="#222222"/>
</svg>
