<svg width="24" height="24" viewBox="0 0 24 24" fill="none" xmlns="http://www.w3.org/2000/svg">
<g clip-path="url(#clip0_105_132810)">
<path d="M16.5851 9.61587L15.2101 5.99987H17.6321C18.553 6.00208 19.4605 6.22039 20.2817 6.63723C21.1029 7.05406 21.8148 7.6578 22.3601 8.39987L23.1471 9.47487C23.4825 9.93242 23.7269 10.4501 23.8671 10.9999H16.9521C16.8811 10.5264 16.758 10.0623 16.5851 9.61587ZM12.0001 3.99987C12.2653 3.99987 12.5197 3.89451 12.7072 3.70698C12.8947 3.51944 13.0001 3.26508 13.0001 2.99987V0.999869C13.0001 0.734652 12.8947 0.480298 12.7072 0.292762C12.5197 0.105225 12.2653 -0.000131526 12.0001 -0.000131526C11.7349 -0.000131526 11.4805 0.105225 11.293 0.292762C11.1055 0.480298 11.0001 0.734652 11.0001 0.999869V2.99987C11.0001 3.26508 11.1055 3.51944 11.293 3.70698C11.4805 3.89451 11.7349 3.99987 12.0001 3.99987ZM14.7221 10.3429L13.0711 5.99987H10.9381L9.26009 10.4519C9.19573 10.6311 9.1423 10.8141 9.10009 10.9999H14.9211C14.8711 10.7762 14.8046 10.5566 14.7221 10.3429ZM16.5531 3.89987C16.6712 3.95923 16.7998 3.9946 16.9316 4.00394C17.0634 4.01328 17.1958 3.9964 17.3211 3.95428C17.4463 3.91215 17.562 3.84562 17.6614 3.75853C17.7608 3.67144 17.8419 3.56551 17.9001 3.44687L18.9001 1.44687C19.0186 1.2095 19.038 0.934758 18.954 0.683085C18.87 0.431411 18.6895 0.22342 18.4521 0.104868C18.2147 -0.0136833 17.94 -0.0330851 17.6883 0.0509312C17.4366 0.134947 17.2286 0.3155 17.1101 0.552868L16.1101 2.55287C16.0504 2.67033 16.0145 2.79844 16.0044 2.92982C15.9944 3.06121 16.0104 3.19329 16.0516 3.31846C16.0927 3.44364 16.1582 3.55944 16.2443 3.65922C16.3304 3.759 16.4353 3.84078 16.5531 3.89987ZM11.9881 18.8869L14.7741 13.6339C14.8448 13.4268 14.9006 13.2149 14.9411 12.9999H9.00009C9.04505 13.2574 9.11196 13.5107 9.20009 13.7569L11.9881 18.8869ZM7.40009 9.72887L8.80009 5.99987H6.38309C5.48112 6.00222 4.59172 6.21163 3.78345 6.61195C2.97517 7.01228 2.2696 7.59283 1.72109 8.30887L0.900094 9.38287C0.538358 9.8638 0.27995 10.4143 0.141094 10.9999H7.04109C7.11796 10.5653 7.23823 10.1395 7.40009 9.72887ZM16.9691 12.9999C16.9061 13.4777 16.7907 13.9472 16.6251 14.3999C16.6101 14.4399 12.8691 21.4739 12.8661 21.4749C12.7846 21.6331 12.6613 21.766 12.5096 21.859C12.3578 21.952 12.1835 22.0017 12.0055 22.0025C11.8275 22.0033 11.6527 21.9553 11.5002 21.8637C11.3476 21.7721 11.223 21.6403 11.1401 21.4829C11.1401 21.4829 7.36609 14.5709 7.35009 14.5279C7.17097 14.0345 7.05145 13.5216 6.99409 12.9999H0.121094C0.306032 13.8947 0.771184 14.7073 1.44909 15.3199L9.43909 23.0269C10.1409 23.6527 11.0488 23.9977 11.9891 23.9959C12.9493 23.994 13.8751 23.6379 14.5891 22.9959L22.5251 15.3629C23.2205 14.741 23.6988 13.913 23.8901 12.9999H16.9691ZM6.10509 3.44687C6.22365 3.6849 6.4319 3.86609 6.68404 3.95057C6.93618 4.03506 7.21156 4.01592 7.44959 3.89737C7.68763 3.77882 7.86881 3.57056 7.9533 3.31842C8.03778 3.06628 8.01865 2.7909 7.90009 2.55287L6.90009 0.552868C6.84139 0.435335 6.76012 0.330515 6.66091 0.244393C6.5617 0.15827 6.44649 0.0925318 6.32188 0.0509312C6.0702 -0.0330851 5.79546 -0.0136833 5.55809 0.104868C5.32073 0.22342 5.14017 0.431411 5.05616 0.683085C4.97214 0.934758 4.99154 1.2095 5.11009 1.44687L6.10509 3.44687Z" fill="#374957"/>
</g>
<defs>
<clipPath id="clip0_105_132810">
<rect width="24" height="24" fill="white"/>
</clipPath>
</defs>
</svg>
